<?xml version="1.0" standalone="no"?>
<!DOCTYPE svg PUBLIC "-//W3C//DTD SVG 20010904//EN"
 "http://www.w3.org/TR/2001/REC-SVG-20010904/DTD/svg10.dtd">
<svg version="1.0" xmlns="http://www.w3.org/2000/svg"
 width="180.000000pt" height="17.000000pt" viewBox="0 0 180.000000 17.000000"
 preserveAspectRatio="xMidYMid meet">
<metadata>
Created by potrace 1.10, written by Peter Selinger 2001-2011
</metadata>
<g transform="translate(0.000000,17.000000) scale(0.100000,-0.100000)"
fill="#000000" stroke="none">
<path d="M21 161 c-11 -7 -9 -22 11 -82 34 -102 53 -101 90 1 33 92 33 90 8
90 -15 0 -23 -13 -36 -57 l-17 -58 -16 52 c-19 60 -22 65 -40 54z"/>
<path d="M217 163 l-48 -4 3 -76 3 -75 53 -2 c43 -1 52 2 52 17 0 13 -8 17
-35 17 -24 0 -35 5 -35 15 0 10 11 15 35 15 24 0 35 5 35 15 0 10 -11 15 -35
15 -24 0 -35 5 -35 15 0 10 11 15 35 15 28 0 35 4 35 20 0 11 -3 19 -7 18 -5
-1 -30 -3 -56 -5z"/>
<path d="M310 83 c0 -76 2 -83 20 -83 16 0 20 7 20 30 0 34 15 40 25 10 3 -11
15 -25 26 -31 26 -13 60 -3 52 17 -3 8 -11 13 -18 10 -7 -2 -18 1 -24 7 -8 8
-5 17 11 34 18 19 20 28 12 51 -8 24 -15 28 -67 32 l-57 5 0 -82z m88 30 c-2
-10 -13 -19 -26 -21 -17 -3 -22 2 -22 17 0 16 6 21 26 21 19 0 25 -5 22 -17z"/>
<path d="M473 154 c-6 -17 2 -142 10 -151 4 -3 13 -3 22 0 27 11 17 167 -12
167 -7 0 -16 -7 -20 -16z"/>
<path d="M540 148 c0 -11 8 -18 20 -18 18 0 20 -7 20 -65 0 -58 2 -65 20 -65
18 0 20 7 20 65 0 63 1 65 26 65 18 0 25 5 22 16 -2 13 -17 17 -66 18 -53 1
-62 -2 -62 -16z"/>
<path d="M716 161 c-10 -16 -56 -140 -56 -151 0 -16 30 -12 36 5 8 20 70 20
78 0 7 -18 36 -20 36 -2 -1 6 -13 43 -28 82 -26 66 -51 91 -66 66z m34 -83 c0
-10 -7 -18 -15 -18 -16 0 -19 17 -9 45 5 13 8 14 15 3 5 -7 9 -21 9 -30z"/>
<path d="M853 160 c-17 -7 -23 -18 -23 -39 0 -25 6 -32 40 -47 22 -10 40 -21
40 -25 0 -15 -34 -19 -49 -5 -22 20 -51 5 -32 -17 29 -36 103 -27 114 13 6 23
-23 60 -47 60 -7 0 -19 6 -25 14 -16 19 5 32 24 16 8 -7 23 -9 32 -5 16 6 16
8 -6 26 -26 21 -35 22 -68 9z"/>
<path d="M1023 154 c-2 -6 -3 -42 -1 -80 2 -56 6 -69 21 -72 14 -3 17 4 17 32
0 34 2 36 35 36 24 0 35 5 35 15 0 10 -11 15 -35 15 -50 0 -48 28 3 32 24 2
37 8 37 18 0 10 -14 14 -54 15 -30 0 -55 -5 -58 -11z"/>
<path d="M1161 92 c-17 -43 -31 -82 -31 -85 0 -14 38 -7 44 8 6 18 62 21 68 3
2 -6 14 -13 27 -15 19 -3 22 0 16 14 -4 10 -18 48 -32 86 -35 92 -51 90 -92
-11z m64 -9 c5 -19 2 -23 -14 -23 -23 0 -24 3 -15 38 7 26 18 20 29 -15z"/>
<path d="M1310 85 c0 -74 2 -81 20 -82 16 -1 20 4 20 28 0 16 5 29 10 29 6 0
10 -6 10 -13 0 -8 9 -22 19 -31 23 -20 61 -13 61 11 0 9 -6 13 -14 10 -8 -3
-20 0 -26 8 -9 11 -7 18 9 34 42 42 18 78 -57 83 l-52 3 0 -80z m85 25 c0 -8
-10 -16 -22 -18 -18 -3 -23 2 -23 18 0 16 5 21 23 18 12 -2 22 -10 22 -18z"/>
<path d="M1476 124 c-11 -86 -8 -123 12 -120 12 2 18 15 22 47 l6 44 13 -42
c19 -57 46 -58 62 -3 15 48 29 43 29 -11 0 -33 3 -39 21 -39 17 0 20 4 15 23
-3 12 -6 45 -6 72 0 28 -5 57 -10 65 -15 23 -41 1 -58 -48 -7 -23 -17 -42 -20
-42 -4 0 -15 23 -25 50 -24 68 -52 69 -61 4z"/>
<path d="M1702 154 c-33 -23 -25 -55 18 -76 35 -18 45 -38 24 -45 -7 -2 -19 3
-27 12 -18 17 -48 10 -41 -10 3 -7 18 -18 34 -25 34 -14 83 4 88 33 5 23 -22
53 -54 61 -13 4 -24 11 -24 16 0 16 21 22 36 9 12 -10 17 -10 27 0 9 10 8 15
-7 27 -26 18 -46 18 -74 -2z"/>
</g>
</svg>
